Coordinates
version=1
nRows=24
nColumns=22
inDegrees=yes

Units are S.I. units (second, meters, Newtons, ...)
If the header above contains a line with 'inDegrees', this indicates whether rotational values are in degrees (yes) or radians (no).

endheader
time	pelvis_tilt	pelvis_list	pelvis_rotation	pelvis_tx	pelvis_ty	pelvis_tz	hip_flexion_r	hip_adduction_r	hip_rotation_r	knee_angle_r	ankle_angle_r	subtalar_angle_r	hip_flexion_l	hip_adduction_l	hip_rotation_l	knee_angle_l	ankle_angle_l	subtalar_angle_l	lumbar_extension	lumbar_bending	lumbar_rotation
      4.47000000	      3.32602219	      5.67399663	    100.42367268	      0.51839951	      0.90932909	     -0.32422123	     16.40674079	      1.67072958	    -10.30212439	    -21.33087594	     -3.60417279	      7.91086865	     -3.30742281	     -8.43717168	      3.78313336	    -55.60868609	     -6.93498201	     -3.33315693	     -7.73112859	     -0.65801503	     -5.77849658
      4.48000000	      3.46183674	      5.78468822	    100.72071567	      0.52046933	      0.91095456	     -0.33115283	     15.62815777	      2.06920110	    -10.55100552	    -20.92483874	     -3.30726696	      7.71196215	     -2.06061633	     -8.84731685	      3.80921353	    -57.41047820	     -6.77021658	     -3.38792890	     -7.86034509	     -0.47559897	     -5.67696999
      4.49000000	      3.54796816	      5.87119314	    100.98072376	      0.52249468	      0.91259012	     -0.33788500	     14.85117065	      2.43233103	    -10.74437425	    -20.45007800	     -3.05716395	      7.43994842	     -0.84685738	     -9.18998229	      3.75687491	    -58.96773061	     -6.34775528	     -3.39585891	     -7.96819964	     -0.35625635	     -5.50866522
      4.50000000	      3.57722791	      5.94220793	    101.18474573	      0.52448039	      0.91424967	     -0.34441775	     14.08130792	      2.75045488	    -10.86479395	    -19.93853597	     -2.85494318	      7.15782836	      0.30526300	     -9.45347857	      3.61365211	    -60.26408092	     -5.72732197	     -3.35084537	     -8.06643695	     -0.30457625	     -5.27382479
      4.51000000	      3.54563889	      5.97844936	    101.31848207	      0.52643677	      0.91588861	     -0.35074725	     13.35216638	      3.01164679	    -10.88409133	    -19.42038647	     -2.70346233	      6.84623372	      1.41087206	     -9.62352881	      3.37770575	    -61.30848929	     -4.98150198	     -3.29779631	     -8.13894040	     -0.32535900	     -4.97806994
      4.52000000	      3.45039861	      5.97588406	    101.36390245	      0.52836835	      0.91750232	     -0.35692259	     12.67278129	      3.20543924	    -10.81502020	    -18.91337611	     -2.58054468	      6.56181003	      2.45247373	     -9.69740949	      3.03031264	    -62.08904755	     -4.14497969	     -3.25710361	     -8.17134888	     -0.42294686	     -4.59700587
      4.53000000	      3.28921088	      5.94969472	    101.32243249	      0.53026255	      0.91907521	     -0.36291216	     12.04946661	      3.31988486	    -10.67739287	    -18.46464399	     -2.46895616	      6.35516720	      3.41422980	     -9.66756693	      2.59383704	    -62.62117807	     -3.22591834	     -3.22144486	     -8.19065892	     -0.59292883	     -4.13269394
      4.54000000	      3.11209278	      5.86839690	    101.18731793	      0.53217837	      0.92052852	     -0.36871476	     11.50680279	      3.41430287	    -10.40685835	    -18.02917663	     -2.37926321	      6.07900618	      4.35751705	     -9.59569384	      2.06315589	    -62.94311427	     -2.30479306	     -3.23146226	     -8.15028125	     -0.78978256	     -3.59847750
      4.55000000	      2.89812757	      5.77755967	    100.97644642	      0.53405676	      0.92191034	     -0.37437038	     11.00647306	      3.45149508	    -10.13317015	    -17.64909600	     -2.28448601	      5.88416669	      5.21286074	     -9.47647525	      1.43808533	    -63.04027764	     -1.28863351	     -3.21297859	     -8.10087972	     -1.02088946	     -3.05001904
      4.56000000	      2.68800581	      5.66094855	    100.68181220	      0.53595708	      0.92316861	     -0.37981502	     10.55884567	      3.48860638	     -9.75078659	    -17.28007125	     -2.18627480	      5.65103867	      6.03079734	     -9.34346677	      0.75438563	    -62.95635119	     -0.26603735	     -3.21011855	     -8.02948824	     -1.25143724	     -2.41747887
      4.57000000	      2.48913343	      5.56077204	    100.34074042	      0.53780759	      0.92433065	     -0.38508089	     10.13082717	      3.51828508	     -9.40759577	    -16.95467913	     -2.08283244	      5.49425271	      6.77025303	     -9.23019755	      0.01788818	    -62.69935102	      0.85187538	     -3.14550489	     -7.97753172	     -1.45675823	     -1.79828545
      4.58000000	      2.31480789	      5.46788446	     99.95813108	      0.53961606	      0.92538865	     -0.39017170	      9.71302144	      3.56327168	     -9.04856442	    -16.62855553	     -1.97963279	      5.34650343	      7.44866630	     -9.14222147	     -0.74324314	    -62.28298894	      2.00700020	     -3.05477172	     -7.93277154	     -1.62645480	     -1.17943419
      4.59000000	      2.17193200	      5.39399941	     99.55285878	      0.54135541	      0.92634299	     -0.39507896	      9.28983815	      3.62769626	     -8.70205083	    -16.29584101	     -1.87312139	      5.20518644	      8.06704880	     -9.09001407	     -1.50743749	    -61.73065369	      3.18157330	     -2.94076035	     -7.91370663	     -1.74840915	     -0.56921372
      4.60000000	      2.06578155	      5.33902274	     99.14472593	      0.54300243	      0.92719168	     -0.39983482	      8.86537882	      3.71376911	     -8.40631019	    -15.97034230	     -1.75999559	      5.08512148	      8.62611491	     -9.08118997	     -2.26135244	    -61.04940327	      4.37007015	     -2.80457756	     -7.91426226	     -1.81651200	     -0.01673635
      4.61000000	      1.99312446	      5.30338301	     98.73822359	      0.54457370	      0.92794607	     -0.40444727	      8.42741538	      3.82368374	     -8.13926951	    -15.63143783	     -1.64527321	      4.96582660	      9.12661292	     -9.10695382	     -2.98209678	    -60.25059257	      5.53760964	     -2.64764917	     -7.93587152	     -1.84054693	      0.51111339
      4.62000000	      1.94634931	      5.28459067	     98.34678073	      0.54603508	      0.92860360	     -0.40889911	      7.98068849	      3.94583311	     -7.91007848	    -15.28521650	     -1.52833367	      4.84641237	      9.57842051	     -9.16006060	     -3.66577546	    -59.35436178	      6.68348180	     -2.46528619	     -7.98260487	     -1.82756509	      0.99207747
      4.63000000	      1.92054640	      5.27423967	     97.97422781	      0.54740233	      0.92917467	     -0.41323225	      7.53517571	      4.07590126	     -7.71707139	    -14.94218740	     -1.40607940	      4.72816559	      9.98062797	     -9.23922236	     -4.31304627	    -58.35507316	      7.80316097	     -2.26362124	     -8.03777857	     -1.78601809	      1.41319793
      4.64000000	      1.91321989	      5.26308368	     97.62129009	      0.54867581	      0.92965292	     -0.41744256	      7.10717603	      4.21218648	     -7.54740112	    -14.61520587	     -1.27174693	      4.61963838	     10.34646564	     -9.33941347	     -4.92104387	    -57.26890414	      8.90740307	     -2.06685627	     -8.09136738	     -1.72450482	      1.78783281
      4.65000000	      1.91690813	      5.24661346	     97.28762285	      0.54987179	      0.93005118	     -0.42154965	      6.70373929	      4.34787302	     -7.39174731	    -14.31353401	     -1.12927639	      4.52140662	     10.67549683	     -9.46088536	     -5.50359794	    -56.09820350	      9.99715634	     -1.89517861	     -8.13649413	     -1.65413319	      2.09825738
      4.66000000	      1.92457405	      5.22595986	     96.97861703	      0.55096973	      0.93040415	     -0.42557970	      6.30922715	      4.47876864	     -7.22884506	    -14.01362486	     -0.99068999	      4.42293213	     10.96023987	     -9.58577502	     -6.03920278	    -54.84038307	     11.05285615	     -1.75999383	     -8.17000733	     -1.58336914	      2.38662024
      4.67000000	      1.93669102	      5.19046446	     96.69187673	      0.55198482	      0.93070640	     -0.42953721	      5.94336906	      4.60372516	     -7.06295578	    -13.73158727	     -0.85209037	      4.33263297	     11.21248654	     -9.71928165	     -6.54009852	    -53.50456346	     12.06666837	     -1.68295159	     -8.17848680	     -1.51408502	      2.63144251
      4.68000000	      1.95034359	      5.14095335	     96.42428609	      0.55292725	      0.93097930	     -0.43344259	      5.59734021	      4.72295261	     -6.87912099	    -13.45512589	     -0.72378087	      4.24645096	     11.42580061	     -9.85494962	     -7.00110135	    -52.09269326	     13.03193226	     -1.67857314	     -8.16165747	     -1.45175512	      2.84788660
      4.69000000	      1.96780686	      5.07328196	     96.17725368	      0.55378583	      0.93122203	     -0.43730822	      5.27946857	      4.83673003	     -6.68879785	    -13.19343680	     -0.60385717	      4.17305467	     11.60582415	     -9.99811380	     -7.43641463	    -50.61431545	     13.94228644	     -1.75879307	     -8.11110277	     -1.38813272	      3.03254626
      4.70000000	      1.99598972	      4.98576654	     95.94233373	      0.55459591	      0.93142780	     -0.44112334	      5.00176258	      4.95359728	     -6.50125071	    -12.96128653	     -0.48777504	      4.11808536	     11.75559575	    -10.15656681	     -7.84720623	    -49.07694821	     14.81243894	     -1.91357638	     -8.02647725	     -1.32000134	      3.19015672
